<svg width="130" height="56" viewBox="0 0 130 56" fill="none" xmlns="http://www.w3.org/2000/svg">
<rect width="130" height="56" rx="12" fill="#1DD100" fill-opacity="0.1"/>
<rect x="0.5" y="0.5" width="129" height="55" rx="11.5" stroke="#1DD100" stroke-opacity="0.4"/>
<path d="M42.9708 31.84C42.9708 32.44 42.8508 32.9667 42.6108 33.42C42.3708 33.8733 42.0374 34.2533 41.6108 34.56C41.1974 34.8667 40.7108 35.1 40.1508 35.26C39.6041 35.42 39.0174 35.5 38.3908 35.5H31.5308V21.3H39.1308C39.6241 21.3 40.0708 21.4067 40.4708 21.62C40.8708 21.8333 41.2108 22.1133 41.4908 22.46C41.7708 22.7933 41.9841 23.18 42.1308 23.62C42.2908 24.0467 42.3708 24.48 42.3708 24.92C42.3708 25.6133 42.1974 26.2667 41.8508 26.88C41.5041 27.48 40.9974 27.9267 40.3308 28.22C41.1441 28.46 41.7841 28.8933 42.2508 29.52C42.7308 30.1333 42.9708 30.9067 42.9708 31.84ZM40.1908 31.32C40.1908 31.0667 40.1441 30.8267 40.0508 30.6C39.9708 30.36 39.8574 30.1533 39.7108 29.98C39.5641 29.8067 39.3908 29.6733 39.1908 29.58C38.9908 29.4733 38.7708 29.42 38.5308 29.42H34.2908V33.16H38.3908C38.6441 33.16 38.8774 33.1133 39.0908 33.02C39.3174 32.9267 39.5108 32.8 39.6708 32.64C39.8308 32.4667 39.9574 32.2667 40.0508 32.04C40.1441 31.8133 40.1908 31.5733 40.1908 31.32ZM34.2908 23.66V27.24H37.9708C38.4374 27.24 38.8308 27.08 39.1508 26.76C39.4841 26.44 39.6508 26 39.6508 25.44C39.6508 24.8933 39.4974 24.46 39.1908 24.14C38.8974 23.82 38.5308 23.66 38.0908 23.66H34.2908ZM48.0645 35.7C46.9845 35.7 46.1645 35.3533 45.6045 34.66C45.0445 33.9667 44.7645 32.94 44.7645 31.58V25.02H47.4445V31C47.4445 32.6133 48.0245 33.42 49.1845 33.42C49.7045 33.42 50.2045 33.2667 50.6845 32.96C51.1779 32.64 51.5779 32.16 51.8845 31.52V25.02H54.5645V32.42C54.5645 32.7 54.6112 32.9 54.7045 33.02C54.8112 33.14 54.9779 33.2067 55.2045 33.22V35.5C54.9379 35.5533 54.7112 35.5867 54.5245 35.6C54.3512 35.6133 54.1912 35.62 54.0445 35.62C53.5645 35.62 53.1712 35.5133 52.8645 35.3C52.5712 35.0733 52.3979 34.7667 52.3445 34.38L52.2845 33.54C51.8179 34.26 51.2179 34.8 50.4845 35.16C49.7512 35.52 48.9445 35.7 48.0645 35.7ZM61.1878 35.7C60.3078 35.7 59.4478 35.56 58.6078 35.28C57.7678 35 57.0478 34.6 56.4478 34.08L57.4478 32.4C58.0878 32.8533 58.7078 33.2 59.3078 33.44C59.9211 33.6667 60.5278 33.78 61.1278 33.78C61.6611 33.78 62.0811 33.68 62.3878 33.48C62.6945 33.28 62.8478 32.9933 62.8478 32.62C62.8478 32.2467 62.6678 31.9733 62.3078 31.8C61.9478 31.6267 61.3611 31.4267 60.5478 31.2C59.8678 31.0133 59.2878 30.8333 58.8078 30.66C58.3278 30.4867 57.9411 30.2933 57.6478 30.08C57.3545 29.8533 57.1411 29.6 57.0078 29.32C56.8745 29.0267 56.8078 28.68 56.8078 28.28C56.8078 27.7467 56.9078 27.2667 57.1078 26.84C57.3211 26.4133 57.6145 26.0533 57.9878 25.76C58.3611 25.4533 58.7945 25.22 59.2878 25.06C59.7945 24.9 60.3411 24.82 60.9278 24.82C61.7145 24.82 62.4478 24.9333 63.1278 25.16C63.8211 25.3867 64.4545 25.7533 65.0278 26.26L63.9478 27.88C63.4145 27.48 62.8945 27.1867 62.3878 27C61.8945 26.8133 61.4011 26.72 60.9078 26.72C60.4545 26.72 60.0745 26.8133 59.7678 27C59.4611 27.1867 59.3078 27.4867 59.3078 27.9C59.3078 28.0867 59.3411 28.24 59.4078 28.36C59.4878 28.48 59.6078 28.5867 59.7678 28.68C59.9278 28.7733 60.1345 28.8667 60.3878 28.96C60.6545 29.04 60.9811 29.1267 61.3678 29.22C62.0878 29.4067 62.7011 29.5933 63.2078 29.78C63.7278 29.9667 64.1478 30.18 64.4678 30.42C64.8011 30.66 65.0411 30.94 65.1878 31.26C65.3478 31.5667 65.4278 31.94 65.4278 32.38C65.4278 33.4067 65.0478 34.22 64.2878 34.82C63.5278 35.4067 62.4945 35.7 61.1878 35.7Z" fill="#1DD100"/>
<path d="M80 33C80 33.5304 80.2107 34.0391 80.5858 34.4142C80.9609 34.7893 81.4696 35 82 35C82.5304 35 83.0391 34.7893 83.4142 34.4142C83.7893 34.0391 84 33.5304 84 33M80 33C80 32.4696 80.2107 31.9609 80.5858 31.5858C80.9609 31.2107 81.4696 31 82 31C82.5304 31 83.0391 31.2107 83.4142 31.5858C83.7893 31.9609 84 32.4696 84 33M80 33H78V22C78 21.7348 78.1054 21.4804 78.2929 21.2929C78.4804 21.1054 78.7348 21 79 21H93C94.3261 21 95.5979 21.7375 96.5355 23.0503C97.4732 24.363 98 26.1435 98 28M84 33H92M92 33C92 33.5304 92.2107 34.0391 92.5858 34.4142C92.9609 34.7893 93.4696 35 94 35C94.5304 35 95.0391 34.7893 95.4142 34.4142C95.7893 34.0391 96 33.5304 96 33M92 33C92 32.4696 92.2107 31.9609 92.5858 31.5858C92.9609 31.2107 93.4696 31 94 31C94.5304 31 95.0391 31.2107 95.4142 31.5858C95.7893 31.9609 96 32.4696 96 33M96 33H98V28M98 28H93.5L92 21M78 26H93M83 21V26M88 21V26" stroke="#1DD100" stroke-width="1.5" stroke-linecap="round" stroke-linejoin="round"/>
</svg>
